<?xml version="1.0" standalone="no"?>
<svg viewBox="0 0 200 200" xmlns="http://www.w3.org/2000/svg">
  <path fill="#DBE2EF" d="M34.5,-58.2C47.4,-52.2,62.6,-48.6,68.4,-39.2C74.2,-29.9,70.6,-15,66.7,-2.3C62.8,10.4,58.5,20.9,55.2,34.5C51.9,48.2,49.6,65.1,40.6,73.5C31.6,81.8,15.8,81.7,0.2,81.4C-15.4,81.1,-30.9,80.6,-45.2,75.3C-59.5,70,-72.7,59.8,-76.1,46.4C-79.5,33.1,-73.2,16.5,-68.3,2.8C-63.3,-10.9,-59.9,-21.7,-57,-35.9C-54,-50.2,-51.6,-67.7,-42.2,-75.8C-32.8,-83.8,-16.4,-82.4,-2.8,-77.5C10.8,-72.6,21.5,-64.2,34.5,-58.2Z" transform="translate(100 100)" />
</svg>
