<svg id="visual" viewBox="0 0 960 540" width="960" height="540" xmlns="http://www.w3.org/2000/svg" xmlns:xlink="http://www.w3.org/1999/xlink" version="1.1"><rect x="0" y="0" width="960" height="540" fill="#f9f7f7"></rect><defs><linearGradient id="grad1_0" x1="43.8%" y1="100%" x2="100%" y2="0%"><stop offset="14.444444444444446%" stop-color="#f9f7f7" stop-opacity="1"></stop><stop offset="85.55555555555554%" stop-color="#f9f7f7" stop-opacity="1"></stop></linearGradient></defs><defs><linearGradient id="grad2_0" x1="0%" y1="100%" x2="56.3%" y2="0%"><stop offset="14.444444444444446%" stop-color="#f9f7f7" stop-opacity="1"></stop><stop offset="85.55555555555554%" stop-color="#f9f7f7" stop-opacity="1"></stop></linearGradient></defs><g transform="translate(960, 540)"><path d="M-324 0C-291.2 -33.4 -258.4 -66.7 -239.3 -99.1C-220.2 -131.5 -214.7 -162.8 -199.4 -199.4C-184.1 -236 -158.9 -277.7 -124 -299.3C-89.1 -321 -44.6 -322.5 0 -324L0 0Z" fill="#112d4e"></path></g><g transform="translate(0, 0)"><path d="M324 0C319.7 42.2 315.5 84.4 299.3 124C283.2 163.6 255.3 200.7 220.6 220.6C186 240.6 144.7 243.4 106.8 257.8C68.9 272.1 34.4 298.1 0 324L0 0Z" fill="#112d4e"></path></g></svg>