<?xml version="1.0" standalone="no"?>
<svg viewBox="0 0 200 200" xmlns="http://www.w3.org/2000/svg">
  <path fill="#D0E2FF" d="M42.9,-63.8C55.6,-58.6,65.8,-46.7,70.2,-33.2C74.6,-19.7,73.2,-4.7,68.6,8.1C64,20.9,56.4,31.6,48.1,42.5C39.9,53.4,31.1,64.6,19.4,69.8C7.7,75,-6.9,74.2,-19.9,69.5C-32.9,64.9,-44.2,56.5,-51.5,45.9C-58.8,35.2,-62,22.3,-67.4,7.6C-72.8,-7.1,-80.3,-23.6,-76.8,-36.7C-73.4,-49.9,-59,-59.7,-44.4,-64C-29.8,-68.3,-14.9,-67.1,0.1,-67.3C15.1,-67.4,30.2,-69,42.9,-63.8Z" transform="translate(100 100)" />
</svg>
