<?xml version="1.0" standalone="no"?>
<svg viewBox="0 0 200 200" xmlns="http://www.w3.org/2000/svg">
  <path fill="#3F72AF" d="M45.1,-61.3C59.8,-60.7,73.9,-50.5,73.8,-37.6C73.6,-24.7,59.2,-9.1,48.9,1.4C38.6,11.9,32.5,17.4,27.4,24.3C22.3,31.1,18.1,39.4,9.8,48.8C1.6,58.2,-10.9,68.8,-18.7,65.6C-26.5,62.4,-29.6,45.4,-38.7,34C-47.9,22.7,-62.9,16.9,-71.4,5.8C-79.9,-5.3,-81.8,-21.7,-73.6,-31.1C-65.5,-40.6,-47.3,-42.9,-33.3,-43.8C-19.4,-44.7,-9.7,-44.1,2.8,-48.4C15.2,-52.7,30.4,-61.9,45.1,-61.3Z" transform="translate(100 100)" />
</svg>
