<?xml version="1.0" standalone="no"?><svg xmlns="http://www.w3.org/2000/svg" viewBox="0 0 1440 320"><path fill="#00cba9" fill-opacity="1" d="M0,64L26.7,85.3C53.3,107,107,149,160,176C213.3,203,267,213,320,208C373.3,203,427,181,480,181.3C533.3,181,587,203,640,192C693.3,181,747,139,800,128C853.3,117,907,139,960,160C1013.3,181,1067,203,1120,192C1173.3,181,1227,139,1280,106.7C1333.3,75,1387,53,1413,42.7L1440,32L1440,320L1413.3,320C1386.7,320,1333,320,1280,320C1226.7,320,1173,320,1120,320C1066.7,320,1013,320,960,320C906.7,320,853,320,800,320C746.7,320,693,320,640,320C586.7,320,533,320,480,320C426.7,320,373,320,320,320C266.7,320,213,320,160,320C106.7,320,53,320,27,320L0,320Z"></path></svg>